<svg width="400" height="400" viewBox="0 0 400 400" xmlns="http://www.w3.org/2000/svg">
  <style>.box { fill: none; stroke: black; stroke-width: 1; } .thick { stroke: black; stroke-width: 3; fill: none; } .txt { font-family: Arial; font-weight: bold; font-size: 14px; text-anchor: middle; }</style>
  <text x="200" y="20" class="txt">LENGKAPI MATRIKS (3x3)</text>

  <g transform="translate(50, 40)">
    <rect width="60" height="60" class="box"/><circle cx="30" cy="30" r="20" class="thick"/>
  </g>
  <g transform="translate(120, 40)">
    <rect width="60" height="60" class="box"/><rect x="15" y="15" width="30" height="30" class="thick"/>
  </g>
  <g transform="translate(190, 40)">
    <rect width="60" height="60" class="box"/><rect x="15" y="15" width="30" height="30" class="thick"/><circle cx="30" cy="30" r="20" class="thick"/>
  </g>

  <g transform="translate(50, 110)">
    <rect width="60" height="60" class="box"/><line x1="30" y1="10" x2="30" y2="50" class="thick"/>
  </g>
  <g transform="translate(120, 110)">
    <rect width="60" height="60" class="box"/><line x1="10" y1="30" x2="50" y2="30" class="thick"/>
  </g>
  <g transform="translate(190, 110)">
    <rect width="60" height="60" class="box"/><line x1="30" y1="10" x2="30" y2="50" class="thick"/><line x1="10" y1="30" x2="50" y2="30" class="thick"/>
  </g>

  <g transform="translate(50, 180)">
    <rect width="60" height="60" class="box"/><polygon points="30,10 50,30 30,50 10,30" class="thick"/>
  </g>
  <g transform="translate(120, 180)">
    <rect width="60" height="60" class="box"/><line x1="15" y1="15" x2="45" y2="45" class="thick"/><line x1="45" y1="15" x2="15" y2="45" class="thick"/>
  </g>
  <g transform="translate(190, 180)">
    <rect width="60" height="60" class="box"/><text x="30" y="40" font-size="30" text-anchor="middle">?</text>
  </g>

  <line x1="0" y1="260" x2="400" y2="260" stroke="#ccc" stroke-dasharray="5,5"/>

  <g transform="translate(20, 280)"><text x="30" y="-5" class="txt">A</text><rect width="60" height="60" class="box"/><polygon points="30,10 50,30 30,50 10,30" class="thick"/></g>
  <g transform="translate(90, 280)"><text x="30" y="-5" class="txt">B</text><rect width="60" height="60" class="box"/><line x1="15" y1="15" x2="45" y2="45" class="thick"/><line x1="45" y1="15" x2="15" y2="45" class="thick"/></g>
  <g transform="translate(160, 280)"><text x="30" y="-5" class="txt">C</text><rect width="60" height="60" class="box"/><polygon points="30,10 50,30 30,50 10,30" class="thick"/><line x1="15" y1="15" x2="45" y2="45" class="thick"/><line x1="45" y1="15" x2="15" y2="45" class="thick"/></g>
  <g transform="translate(230, 280)"><text x="30" y="-5" class="txt">D</text><rect width="60" height="60" class="box"/><circle cx="30" cy="30" r="20" class="thick"/></g>
  <g transform="translate(300, 280)"><text x="30" y="-5" class="txt">E</text><rect width="60" height="60" class="box"/><rect x="15" y="15" width="30" height="30" class="thick"/></g>
</svg>