<svg width="200" height="150" viewBox="0 0 200 150" xmlns="http://www.w3.org/2000/svg">
  <rect width="100%" height="100%" fill="white"/>
  
  <rect x="10" y="50" width="30" height="30" fill="black"/> <rect x="40" y="50" width="30" height="30" fill="none" stroke="black"/> <line x1="40" y1="50" x2="70" y2="80" stroke="black"/>
  <line x1="70" y1="50" x2="40" y2="80" stroke="black"/>
  <rect x="70" y="50" width="30" height="30" fill="white" stroke="black"/> <rect x="100" y="50" width="30" height="30" fill="none" stroke="black"/> <circle cx="115" cy="65" r="5" fill="black"/>
  
  <rect x="40" y="20" width="30" height="30" fill="none" stroke="black"/> <line x1="45" y1="35" x2="65" y2="35" stroke="black" stroke-width="2"/>
  <rect x="40" y="80" width="30" height="30" fill="none" stroke="black"/> <line x1="55" y1="85" x2="55" y2="105" stroke="black" stroke-width="2"/>

  <g transform="translate(150, 50)">
    <path d="M15 0 L45 0 L30 15 L0 15 Z" fill="black" stroke="black"/> <rect x="0" y="15" width="30" height="30" fill="white" stroke="black"/> <path d="M30 15 L45 0 L45 30 L30 45 Z" fill="white" stroke="black"/> <text x="5" y="40" font-size="10">Mustahil</text>
  </g>
</svg>